<svg width="177" height="47" viewBox="0 0 177 47" fill="none" xmlns="http://www.w3.org/2000/svg">
<path d="M27.6859 23.1493C26.8677 21.622 26.115 20.0511 25.5041 18.4802C23.2076 13.1524 21.7361 7.50571 21.1405 1.73467C21.1239 1.52053 21.027 1.32055 20.8692 1.17487C20.7114 1.02919 20.5043 0.948583 20.2895 0.949223H6.915C6.70035 0.951533 6.49451 1.03488 6.33873 1.18257C6.18295 1.33025 6.08874 1.53136 6.075 1.74558C5.73285 7.4951 4.45803 13.1508 2.30045 18.4911C1.65967 20.0793 0.931283 21.6308 0.118638 23.1384C0.040956 23.2707 0 23.4213 0 23.5747C0 23.7281 0.040956 23.8788 0.118638 24.0111C0.931083 25.3689 1.65972 26.7752 2.30045 28.222C5.32227 34.9638 5.74773 41.2256 6.06409 45.8075C6.07784 46.0217 6.17204 46.2228 6.32782 46.3705C6.4836 46.5181 6.68944 46.6015 6.90409 46.6038H20.3223C20.537 46.6044 20.7441 46.5238 20.9019 46.3782C21.0598 46.2325 21.1567 46.0325 21.1732 45.8184C21.5832 39.7457 23.0603 33.7928 25.5368 28.2329C26.1884 26.7878 26.9167 25.3785 27.7186 24.0111C27.7883 23.8769 27.8219 23.7269 27.8162 23.5759C27.8104 23.4248 27.7655 23.2778 27.6859 23.1493ZM23.9223 27.5129C21.4762 33.0143 19.9787 38.89 19.4932 44.8911H7.71136C7.48021 38.9132 6.17196 33.0261 3.84954 27.5129C3.22824 26.1576 2.53639 24.8358 1.77682 23.5529C2.5363 22.1336 3.22443 20.6772 3.83863 19.1893C5.96849 13.928 7.26408 8.36645 7.67863 2.70558H19.5041C20.1699 8.38272 21.6391 13.9365 23.8677 19.2002C24.4895 20.662 25.1768 22.1347 25.9404 23.5638C25.202 24.8418 24.5284 26.1562 23.9223 27.502V27.5129Z" fill="white"/>
<path d="M22.0691 27.1089C22.5054 25.887 23.1055 24.6434 23.6945 23.5525C23.5418 23.2361 23.3673 22.9089 23.1927 22.5707C22.6564 21.5924 22.1862 20.5792 21.7855 19.538C20.1277 15.0568 18.9857 10.4013 18.3818 5.66162L9 42.9816H18.24C18.7591 37.5362 20.0483 32.192 22.0691 27.1089Z" fill="white"/>
<path d="M53.3229 18.6107H51.1411L44.0392 5.00707V18.6107H41.8574V0.970703H44.0392L51.1192 14.618V0.970703H53.3011L53.3229 18.6107Z" fill="white"/>
<path d="M63.6093 18.6112C63.5283 18.4072 63.4698 18.1951 63.4347 17.9784C63.4347 17.7275 63.3584 17.4657 63.3365 17.1821C63.1801 17.4104 63.001 17.6224 62.802 17.8148C62.6052 18.022 62.3813 18.2018 62.1366 18.3494C61.8863 18.5033 61.6191 18.6278 61.3402 18.7203C61.043 18.8095 60.7341 18.8537 60.4238 18.8512C59.8944 18.8538 59.368 18.7728 58.8638 18.6112C58.418 18.4591 58.0117 18.2094 57.6747 17.8803C57.3366 17.5442 57.076 17.1384 56.9111 16.6912C56.7273 16.1581 56.6387 15.5968 56.6493 15.033C56.6429 14.4353 56.7541 13.8423 56.9765 13.2875C57.187 12.7591 57.5198 12.288 57.9475 11.913C58.4242 11.4926 58.9861 11.18 59.5947 10.9966C60.2985 10.7648 61.0356 10.6505 61.7765 10.6584H63.2602V9.26203C63.3151 8.65992 63.1309 8.06037 62.7475 7.59294C62.298 7.23319 61.7287 7.05771 61.1547 7.10203C60.838 7.0965 60.5232 7.15206 60.2275 7.26567C59.971 7.36265 59.7371 7.51116 59.5402 7.70203C59.3541 7.88593 59.2124 8.10976 59.1256 8.35658C59.0248 8.60235 58.9729 8.86546 58.9729 9.13112H56.7911C56.7929 8.64929 56.897 8.17334 57.0965 7.73476C57.3044 7.26499 57.605 6.842 57.9802 6.49112C58.3855 6.1081 58.8592 5.80465 59.3766 5.59658C59.9628 5.36351 60.5894 5.24858 61.2202 5.25839C61.7839 5.2539 62.3456 5.32732 62.8893 5.47658C63.3711 5.61153 63.8179 5.84977 64.1984 6.17476C64.5763 6.52058 64.8677 6.95029 65.0493 7.4293C65.271 8.02546 65.3747 8.65902 65.3547 9.29476V15.753C65.3547 15.9712 65.3547 16.2003 65.3547 16.4403C65.3547 16.6803 65.3547 16.9203 65.4311 17.1494C65.5075 17.3784 65.5184 17.6075 65.562 17.8257C65.6126 18.0254 65.6746 18.2221 65.7475 18.4148V18.6112H63.6093ZM60.7511 16.8984C61.0399 16.9011 61.3273 16.8569 61.602 16.7675C61.8592 16.6819 62.1047 16.5646 62.3329 16.4184C62.5305 16.2732 62.71 16.1047 62.8675 15.9166C63.026 15.7482 63.1584 15.557 63.2602 15.3494V12.2512H62.1693C61.6987 12.2459 61.2295 12.3009 60.7729 12.4148C60.3843 12.5161 60.0155 12.682 59.682 12.9057C59.3954 13.1125 59.1633 13.3858 59.0056 13.7021C58.8377 14.0406 58.7553 14.4152 58.7656 14.793C58.7597 15.1279 58.8001 15.4619 58.8856 15.7857C58.9548 16.0306 59.0821 16.2551 59.2566 16.4403C59.4249 16.612 59.6356 16.7362 59.8675 16.8003C60.1552 16.8782 60.4533 16.9113 60.7511 16.8984Z" fill="white"/>
<path d="M71.595 2.32373V5.49828H73.5695V7.18919H71.595V15.3164C71.5871 15.5925 71.6202 15.8682 71.6932 16.1346C71.7405 16.3111 71.8262 16.475 71.9441 16.6146C72.0401 16.7211 72.1653 16.7969 72.3041 16.8328C72.4414 16.8548 72.5813 16.8548 72.7186 16.8328C72.878 16.8524 73.0392 16.8524 73.1986 16.8328L73.5805 16.7455V18.5673L73.0023 18.7201C72.7009 18.7826 72.3936 18.8119 72.0859 18.8073C71.7471 18.8106 71.4106 18.7514 71.0932 18.6328C70.7722 18.5083 70.4872 18.3059 70.2641 18.0437C70.0009 17.7237 69.8077 17.352 69.6968 16.9528C69.5416 16.4141 69.4681 15.8551 69.4786 15.2946V7.18919H67.4277V5.49828H69.4132V2.32373H71.595Z" fill="white"/>
<path d="M76.1234 2.01818C76.1175 1.68681 76.2253 1.36342 76.4288 1.10182C76.5484 0.982081 76.6904 0.887091 76.8467 0.822281C77.003 0.757471 77.1705 0.724121 77.3397 0.724121C77.5089 0.724121 77.6765 0.757471 77.8328 0.822281C77.9891 0.887091 78.1311 0.982081 78.2506 1.10182C78.4605 1.35634 78.5727 1.67742 78.567 2.00727C78.5765 2.3392 78.4683 2.66379 78.2615 2.92364C78.1435 3.04886 77.999 3.14616 77.8386 3.20844C77.6782 3.27072 77.5059 3.29641 77.3343 3.28364C77.1658 3.29792 76.9962 3.27283 76.8391 3.21035C76.682 3.14787 76.5415 3.04972 76.4288 2.92364C76.2245 2.66669 76.1164 2.34639 76.1234 2.01818ZM78.3925 18.6109H76.2106V5.52H78.3925V18.6109Z" fill="white"/>
<path d="M81.3158 11.4435C81.2993 10.5299 81.432 9.61975 81.7085 8.74891C81.9424 8.04012 82.313 7.38409 82.7995 6.818C83.2373 6.31097 83.786 5.91156 84.4031 5.65073C85.0274 5.38572 85.6995 5.25204 86.3776 5.258C87.0627 5.25335 87.7417 5.38692 88.374 5.65073C88.9931 5.91349 89.545 6.31247 89.9886 6.818C90.475 7.38409 90.8456 8.04012 91.0795 8.74891C91.3561 9.61975 91.4887 10.5299 91.4722 11.4435V12.6435C91.4879 13.5534 91.3553 14.4599 91.0795 15.3271C90.8456 16.0359 90.475 16.692 89.9886 17.2581C89.5495 17.7611 89.0009 18.1567 88.3849 18.4144C87.7568 18.6794 87.0811 18.8131 86.3995 18.8071C85.7144 18.8118 85.0354 18.6782 84.4031 18.4144C83.7858 18.1592 83.2366 17.7632 82.7995 17.2581C82.313 16.692 81.9424 16.0359 81.7085 15.3271C81.4327 14.4599 81.3001 13.5534 81.3158 12.6435V11.4435ZM83.4976 12.6871C83.4877 13.3273 83.5648 13.9659 83.7267 14.5853C83.8435 15.0706 84.0508 15.5295 84.3376 15.9381C84.5773 16.2778 84.8954 16.5547 85.2649 16.7453C85.6259 16.93 86.0267 17.0237 86.4322 17.0181C88.374 17.0181 89.3449 15.5635 89.3449 12.6544V11.4435C89.3581 10.8074 89.2847 10.1725 89.1267 9.55615C88.9985 9.07298 88.7881 8.61542 88.5049 8.20346C88.2686 7.85516 87.9501 7.57042 87.5776 7.37436C87.2162 7.19089 86.8157 7.09734 86.4104 7.10164C86.001 7.09436 85.5964 7.19052 85.2341 7.38122C84.8717 7.57192 84.5634 7.85097 84.3376 8.19255C84.0528 8.60219 83.8457 9.06073 83.7267 9.54528C83.5647 10.161 83.4876 10.796 83.4976 11.4326V12.6871Z" fill="white"/>
<path d="M96.2397 5.49829V6.91647C96.6132 6.41069 97.0937 5.99351 97.647 5.69465C98.1924 5.39885 98.8048 5.24856 99.4251 5.25829C99.9217 5.25047 100.414 5.3394 100.876 5.52011C101.307 5.69564 101.683 5.98164 101.967 6.3492C102.296 6.79434 102.536 7.29782 102.676 7.83284C102.851 8.54655 102.932 9.28003 102.916 10.0146V18.611H100.735V9.99283C100.802 9.22942 100.622 8.46462 100.222 7.81102C100.051 7.62005 99.8427 7.46629 99.6097 7.35931C99.3771 7.25233 99.1249 7.19442 98.8688 7.1892C98.3436 7.18958 97.8362 7.37938 97.4397 7.72375C96.9936 8.10285 96.6425 8.58105 96.4142 9.12011V18.6437H94.2324V5.55284L96.2397 5.49829Z" fill="white"/>
<path d="M112.963 18.6112C112.882 18.4072 112.824 18.1951 112.789 17.9784C112.789 17.7275 112.712 17.4657 112.69 17.1821C112.534 17.4104 112.355 17.6224 112.156 17.8148C111.959 18.022 111.735 18.2018 111.49 18.3494C111.24 18.5033 110.973 18.6278 110.694 18.7203C110.397 18.8095 110.088 18.8537 109.778 18.8512C109.248 18.8538 108.722 18.7728 108.218 18.6112C107.772 18.4591 107.366 18.2094 107.029 17.8803C106.69 17.5442 106.43 17.1384 106.265 16.6912C106.081 16.1581 105.993 15.5968 106.003 15.033C105.997 14.4353 106.108 13.8423 106.33 13.2875C106.541 12.7591 106.874 12.288 107.301 11.913C107.765 11.498 108.312 11.1857 108.905 10.9966C109.633 10.7563 110.397 10.642 111.163 10.6584H112.647V9.26203C112.702 8.65992 112.517 8.06037 112.134 7.59294C111.685 7.23319 111.115 7.05771 110.541 7.10203C110.225 7.0965 109.91 7.15206 109.614 7.26567C109.358 7.36265 109.124 7.51116 108.927 7.70203C108.741 7.88593 108.599 8.10976 108.512 8.35658C108.411 8.60235 108.359 8.86546 108.359 9.13112H106.178C106.186 8.6477 106.298 8.17168 106.505 7.73476C106.713 7.26499 107.013 6.842 107.389 6.49112C107.794 6.1081 108.268 5.80465 108.785 5.59658C109.371 5.36351 109.998 5.24858 110.629 5.25839C111.192 5.2539 111.754 5.32732 112.298 5.47658C112.78 5.61153 113.226 5.84977 113.607 6.17476C113.985 6.52058 114.276 6.95029 114.458 7.4293C114.679 8.02546 114.783 8.65902 114.763 9.29476V15.753C114.763 15.9712 114.763 16.2003 114.763 16.4403C114.763 16.6803 114.763 16.9203 114.839 17.1494C114.916 17.3784 114.927 17.6075 114.97 17.8257C115.021 18.0254 115.083 18.2221 115.156 18.4148V18.6112H112.963ZM110.105 16.8984C110.394 16.9001 110.681 16.8559 110.956 16.7675C111.211 16.6845 111.453 16.567 111.676 16.4184C111.887 16.2822 112.081 16.121 112.254 15.9384C112.409 15.7673 112.541 15.5766 112.647 15.3712V12.2512H111.556C111.085 12.2459 110.616 12.3009 110.159 12.4148C109.771 12.5161 109.402 12.682 109.069 12.9057C108.782 13.1125 108.55 13.3858 108.392 13.7021C108.224 14.0406 108.142 14.4152 108.152 14.793C108.146 15.1279 108.187 15.4619 108.272 15.7857C108.341 16.0306 108.469 16.2551 108.643 16.4403C108.811 16.612 109.022 16.7362 109.254 16.8003C109.531 16.8749 109.818 16.908 110.105 16.8984Z" fill="white"/>
<path d="M120.415 18.6109H118.233V0H120.415V18.6109Z" fill="white"/>
<path d="M129.764 18.6107V0.970713H134.793C135.483 0.959043 136.171 1.05097 136.833 1.24344C137.404 1.39769 137.929 1.68989 138.36 2.09435C138.788 2.49485 139.114 2.99249 139.309 3.54526C139.543 4.22956 139.654 4.94971 139.637 5.67253C139.649 6.44362 139.436 7.20158 139.026 7.85435C138.616 8.50073 138.039 9.02459 137.357 9.37071C137.754 9.49747 138.124 9.69722 138.448 9.95982C138.777 10.2295 139.058 10.5543 139.277 10.9198C139.505 11.2992 139.674 11.7112 139.779 12.1416C140.063 13.3419 139.999 14.5985 139.593 15.7634C139.384 16.361 139.045 16.9048 138.6 17.3561C138.157 17.7968 137.62 18.1324 137.029 18.338C136.37 18.5637 135.676 18.6744 134.979 18.6652L129.764 18.6107ZM131.946 8.48708H134.869C135.22 8.48862 135.567 8.42576 135.895 8.30162C136.203 8.17981 136.479 7.98955 136.702 7.74526C136.936 7.48437 137.118 7.1806 137.237 6.85071C137.372 6.46919 137.439 6.06651 137.433 5.66162C137.5 4.89946 137.27 4.14084 136.789 3.54526C136.525 3.30539 136.215 3.12251 135.877 3.00802C135.539 2.89353 135.181 2.84988 134.826 2.8798H132.022L131.946 8.48708ZM131.946 10.3525V16.7016H134.968C135.367 16.7071 135.764 16.6329 136.135 16.4834C136.465 16.3375 136.759 16.1216 136.997 15.8507C137.236 15.5568 137.418 15.2199 137.531 14.858C137.655 14.4291 137.713 13.9842 137.706 13.538C137.713 13.0932 137.662 12.6493 137.553 12.218C137.471 11.8535 137.311 11.5111 137.084 11.2143C136.863 10.9395 136.578 10.7224 136.255 10.5816C135.876 10.419 135.467 10.3408 135.055 10.3525H131.946Z" fill="white"/>
<path d="M149.749 18.6108C149.664 18.4074 149.601 18.1952 149.563 17.978C149.563 17.7271 149.487 17.4653 149.465 17.1817C149.309 17.4074 149.134 17.6191 148.941 17.8144C148.742 18.0191 148.519 18.1987 148.276 18.349C148.022 18.503 147.751 18.6274 147.469 18.7199C147.175 18.8084 146.87 18.8525 146.563 18.8508C146.034 18.8551 145.507 18.774 145.003 18.6108C144.554 18.4588 144.144 18.2092 143.803 17.8799C143.469 17.5428 143.212 17.137 143.051 16.6908C142.669 15.585 142.688 14.3801 143.105 13.2871C143.319 12.7608 143.652 12.2906 144.076 11.9126C144.542 11.4949 145.093 11.1823 145.69 10.9962C146.415 10.7567 147.175 10.6424 147.938 10.6581H149.432V9.26164C149.494 8.96792 149.483 8.6635 149.4 8.37513C149.316 8.08676 149.163 7.82327 148.954 7.60781C148.745 7.39235 148.487 7.23153 148.201 7.13946C147.915 7.0474 147.611 7.02692 147.316 7.07982C147.003 7.07432 146.692 7.1299 146.4 7.24345C146.143 7.34044 145.909 7.48895 145.712 7.67982C145.526 7.86597 145.382 8.08891 145.287 8.33436C145.19 8.58089 145.142 8.84397 145.145 9.10891H142.963C142.965 8.62708 143.069 8.15113 143.269 7.71255C143.477 7.24278 143.777 6.81979 144.152 6.46891C144.562 6.08576 145.039 5.78239 145.56 5.57437C146.145 5.33933 146.772 5.22433 147.403 5.23618C147.963 5.23241 148.521 5.30583 149.061 5.45436C149.543 5.58932 149.99 5.82756 150.37 6.15255C150.753 6.49471 151.045 6.92552 151.221 7.40709C151.443 8.00325 151.547 8.63681 151.527 9.27255V15.7308C151.527 15.949 151.527 16.178 151.527 16.418C151.527 16.658 151.527 16.8981 151.614 17.1271C151.645 17.3549 151.689 17.5807 151.745 17.8035C151.792 18.003 151.85 18.1997 151.92 18.3926V18.589L149.749 18.6108ZM146.869 16.8981C147.158 16.9007 147.445 16.8565 147.72 16.7671C147.978 16.6841 148.224 16.5667 148.45 16.418C148.668 16.2733 148.87 16.1051 149.05 15.9162C149.206 15.7451 149.338 15.5544 149.443 15.349V12.2508H148.352C147.882 12.2455 147.413 12.3005 146.956 12.4144C146.568 12.5179 146.2 12.6837 145.865 12.9053C145.58 13.1143 145.349 13.387 145.189 13.7017C145.03 14.0429 144.951 14.4162 144.96 14.7926C144.949 15.1277 144.989 15.4625 145.08 15.7853C145.141 16.031 145.265 16.2565 145.44 16.4399C145.611 16.6071 145.821 16.7306 146.05 16.7999C146.317 16.8706 146.593 16.9037 146.869 16.8981Z" fill="white"/>
<path d="M156.905 5.49817L156.959 6.91635C157.333 6.41057 157.814 5.99339 158.367 5.69453C158.913 5.4001 159.525 5.2499 160.145 5.25817C160.644 5.25141 161.141 5.34028 161.607 5.51999C162.036 5.69686 162.412 5.98261 162.698 6.34908C163.03 6.79177 163.271 7.29608 163.407 7.83271C163.586 8.54585 163.67 9.27941 163.658 10.0145V18.6109H161.476V9.9927C161.543 9.2293 161.363 8.4645 160.963 7.81089C160.774 7.58813 160.536 7.41285 160.266 7.29916C159.997 7.18547 159.705 7.13655 159.414 7.15635C158.889 7.15673 158.381 7.34653 157.985 7.69089C157.542 8.07294 157.191 8.55034 156.959 9.08726V18.6109H154.778V5.51999L156.905 5.49817Z" fill="white"/>
<path d="M170.181 12.6436L169.09 13.9527V18.6436H166.908V0H169.09V11.1272L170.039 9.80723L173.17 5.49818H175.734L171.567 10.9527L176.279 18.5891H173.781L170.181 12.6436Z" fill="white"/>
<path d="M42.1415 38.2474C42.1285 37.3333 42.2648 36.4231 42.5451 35.5529C42.7727 34.8413 43.144 34.1841 43.636 33.622C44.0739 33.1149 44.6226 32.7155 45.2396 32.4547C45.8615 32.181 46.5348 32.0434 47.2142 32.0511C47.9006 32.0446 48.5806 32.1821 49.2106 32.4547C49.8473 32.7082 50.4153 33.1081 50.8687 33.622C51.3608 34.1841 51.7321 34.8413 51.9596 35.5529C52.2362 36.4237 52.3689 37.3339 52.3524 38.2474V39.4802C52.3681 40.3901 52.2354 41.2965 51.9596 42.1638C51.7321 42.8754 51.3608 43.5326 50.8687 44.0947C50.4309 44.6017 49.8822 45.0012 49.2651 45.262C48.6362 45.5232 47.9606 45.6532 47.2796 45.6438C46.5953 45.6522 45.9163 45.5224 45.2833 45.262C44.6662 45.0012 44.1175 44.6017 43.6797 44.0947C43.1876 43.5326 42.8163 42.8754 42.5887 42.1638C42.2944 41.2996 42.1434 40.3931 42.1415 39.4802V38.2474ZM44.3233 39.4802C44.3128 40.124 44.3898 40.7662 44.5524 41.3893C44.6714 41.8704 44.8786 42.3254 45.1633 42.7311C45.4059 43.0709 45.7231 43.3508 46.0906 43.5493C46.4535 43.7288 46.8529 43.8222 47.2578 43.822C49.1997 43.822 50.1815 42.3711 50.1815 39.4583V38.2474C50.1922 37.6108 50.1151 36.9757 49.9524 36.3602C49.8253 35.8732 49.6149 35.4118 49.3306 34.9965C49.0906 34.6542 48.7728 34.3738 48.4033 34.1783C48.0426 33.9915 47.6422 33.8942 47.236 33.8947C46.8333 33.8942 46.4365 33.9916 46.0797 34.1783C45.7155 34.3772 45.402 34.6571 45.1633 34.9965C44.8785 35.4102 44.6715 35.8723 44.5524 36.3602C44.3896 36.9757 44.3126 37.6108 44.3233 38.2474V39.4802Z" fill="white"/>
<path d="M55.9959 45.3708V34.0253H54.2832V32.2799H55.9959V30.9162C55.9809 30.27 56.0693 29.6255 56.2578 29.0072C56.4134 28.5018 56.6653 28.0314 56.9996 27.6217C57.3304 27.2695 57.737 26.9972 58.1887 26.8253C58.6896 26.6323 59.2227 26.536 59.7596 26.5417C60.2006 26.5411 60.6388 26.6111 61.0577 26.749L60.9487 28.5708L60.4796 28.4835H59.9668C59.7069 28.4713 59.448 28.5226 59.2123 28.6328C58.9767 28.743 58.7713 28.909 58.6141 29.1162C58.2641 29.6568 58.0959 30.2952 58.1341 30.9381V32.2799H60.3814V34.0253H58.1341V45.3708H55.9959Z" fill="white"/>
<path d="M79.3948 27.7637V40.2001C79.4227 41.062 79.2703 41.9203 78.9475 42.7201C78.6809 43.3674 78.2706 43.9457 77.7475 44.411C77.2467 44.8459 76.6592 45.1694 76.0239 45.3601C75.3541 45.5549 74.6595 45.6504 73.962 45.6437C73.2247 45.6588 72.4892 45.5632 71.7802 45.3601C71.1298 45.1758 70.5319 44.8407 70.0353 44.382C69.5387 43.9233 69.1573 43.3539 68.922 42.7201C68.6177 41.9157 68.4732 41.0597 68.4966 40.2001V27.7637H70.6784V40.2001C70.6633 40.7795 70.7406 41.3577 70.9075 41.9128C71.0338 42.3217 71.2543 42.6954 71.5511 43.0037C71.8306 43.2816 72.1759 43.4843 72.5548 43.5928C72.9853 43.707 73.4294 43.762 73.8748 43.7564C74.3201 43.7612 74.7641 43.7062 75.1948 43.5928C75.5768 43.4842 75.9256 43.2817 76.2093 43.0037C76.5062 42.6954 76.7266 42.3217 76.853 41.9128C77.0198 41.3577 77.0972 40.7795 77.082 40.2001V27.7637H79.3948Z" fill="white"/>
<path d="M85.7766 39.4034L84.6857 40.7125V45.3707H82.5039V26.8252H84.6857V37.9525L85.6457 36.6325L88.7548 32.2798H91.3184L87.1512 37.7343L91.8639 45.3707H89.3657L85.7766 39.4034Z" fill="white"/>
<path d="M99.1088 34.3094L98.6398 34.2439H98.1379C97.6169 34.223 97.107 34.3981 96.7088 34.7348C96.3066 35.0902 96.0056 35.5456 95.8361 36.0548V45.3712H93.6543V32.2803H95.7379V33.6112C95.9763 33.1518 96.3203 32.7555 96.7416 32.4548C97.16 32.1635 97.661 32.0143 98.1707 32.0294H98.3998H98.6398H98.8688L99.0216 32.0839L99.1088 34.3094Z" fill="white"/>
<path d="M107.509 45.3709C107.425 45.1719 107.366 44.963 107.335 44.7491C107.28 44.4827 107.244 44.213 107.226 43.9418C107.07 44.1709 106.895 44.3863 106.702 44.5854C106.503 44.7901 106.279 44.9697 106.036 45.12C105.784 45.2749 105.513 45.3959 105.229 45.48C104.936 45.5685 104.63 45.6126 104.324 45.6109C103.794 45.6206 103.266 45.5394 102.764 45.3709C102.317 45.2187 101.908 44.9732 101.564 44.6509C101.229 44.3077 100.969 43.8992 100.8 43.4509C100.616 42.9215 100.528 42.3638 100.538 41.8036C100.532 41.206 100.643 40.6129 100.866 40.0581C101.082 39.5301 101.414 39.0568 101.836 38.6727C102.308 38.263 102.857 37.9514 103.451 37.7563C104.177 37.5259 104.936 37.4154 105.698 37.4291H107.193V36.0654C107.252 35.7721 107.239 35.4688 107.154 35.1817C107.07 34.8946 106.917 34.6323 106.709 34.4175C106.501 34.2027 106.243 34.0419 105.959 33.9488C105.674 33.8558 105.371 33.8334 105.076 33.8836C104.763 33.8781 104.452 33.9337 104.16 34.0472C103.903 34.148 103.669 34.3002 103.473 34.4945C103.29 34.6786 103.145 34.8974 103.047 35.1381C102.952 35.389 102.904 35.6553 102.906 35.9236H100.724C100.724 35.4416 100.828 34.9654 101.029 34.5272C101.24 34.0557 101.54 33.6296 101.913 33.2727C102.32 32.8892 102.798 32.589 103.32 32.3891C103.905 32.15 104.532 32.0313 105.164 32.04C105.724 32.0362 106.282 32.1096 106.822 32.2581C107.305 32.3967 107.751 32.6386 108.131 32.9672C108.513 33.3051 108.805 33.7324 108.982 34.2109C109.202 34.8075 109.305 35.4407 109.287 36.0763V42.5345C109.287 42.7527 109.287 42.9818 109.287 43.2218C109.287 43.4618 109.287 43.7018 109.375 43.9418C109.407 44.1693 109.45 44.3951 109.506 44.6181C109.506 44.8254 109.615 45.0218 109.68 45.1963V45.3709H107.509ZM104.651 43.6691C104.937 43.6725 105.222 43.6244 105.491 43.5272C105.749 43.4479 105.995 43.3341 106.222 43.1891C106.434 43.0495 106.628 42.8846 106.8 42.6981C106.957 42.5327 107.09 42.3453 107.193 42.1418V39.0436H106.102C105.631 39.0362 105.161 39.095 104.706 39.2181C104.314 39.3099 103.943 39.4766 103.615 39.7091C103.329 39.9127 103.097 40.1822 102.938 40.4945C102.779 40.8358 102.701 41.209 102.709 41.5854C102.697 41.9242 102.737 42.2627 102.829 42.5891C102.89 42.8347 103.015 43.0603 103.189 43.2436C103.361 43.4109 103.571 43.5343 103.8 43.6036C104.078 43.672 104.364 43.705 104.651 43.7018V43.6691Z" fill="white"/>
<path d="M112.69 28.8218C112.696 28.4863 112.824 28.1646 113.05 27.9163C113.16 27.7863 113.3 27.684 113.457 27.6177C113.614 27.5514 113.785 27.5229 113.955 27.5345C114.127 27.5212 114.3 27.5488 114.459 27.6152C114.619 27.6815 114.76 27.7848 114.872 27.9163C115.08 28.1753 115.188 28.5005 115.177 28.8327C115.19 29.1618 115.081 29.4841 114.872 29.7382C114.627 29.9748 114.301 30.1071 113.961 30.1071C113.621 30.1071 113.294 29.9748 113.05 29.7382C112.818 29.4894 112.689 29.1618 112.69 28.8218ZM114.948 45.3709H112.766V32.28H114.948V45.3709Z" fill="white"/>
<path d="M120.35 32.2802L120.404 33.6984C120.771 33.202 121.24 32.7893 121.779 32.4874C122.326 32.1965 122.937 32.0466 123.557 32.0511C124.065 32.0271 124.573 32.1049 125.051 32.2802C125.481 32.4623 125.856 32.7515 126.142 33.1202C126.473 33.5601 126.713 34.0604 126.851 34.5929C127.025 35.3068 127.106 36.0401 127.091 36.7747V45.3711H124.964V36.7965C125.027 36.0335 124.847 35.2701 124.451 34.6147C124.26 34.3953 124.021 34.223 123.752 34.1113C123.484 33.9997 123.193 33.9517 122.902 33.9711C122.376 33.9654 121.867 34.156 121.473 34.5056C121.027 34.8805 120.676 35.3551 120.448 35.8911V45.3711H118.266V32.2802H120.35Z" fill="white"/>
<path d="M135.01 45.6434C134.289 45.6563 133.572 45.538 132.894 45.2943C132.277 45.0692 131.726 44.6944 131.29 44.2034C130.827 43.6745 130.481 43.0536 130.276 42.3816C130.03 41.5348 129.912 40.656 129.926 39.7743V38.3234C129.904 37.3292 130.044 36.338 130.341 35.3889C130.569 34.6773 130.94 34.0201 131.432 33.458C131.851 32.973 132.383 32.5984 132.981 32.3671C133.558 32.1547 134.167 32.044 134.781 32.0398C135.505 32.0206 136.224 32.1622 136.886 32.4543C137.463 32.7123 137.957 33.1237 138.316 33.6434C138.711 34.2188 138.985 34.8682 139.123 35.5525C139.299 36.4249 139.383 37.3134 139.374 38.2034V39.4471H132.054V39.7525C131.966 40.8348 132.247 41.915 132.85 42.818C133.133 43.1398 133.485 43.3934 133.88 43.5596C134.275 43.7259 134.702 43.8006 135.13 43.778C135.46 43.7789 135.79 43.7423 136.112 43.6689C136.394 43.6016 136.666 43.4952 136.919 43.3525C137.159 43.2226 137.382 43.0652 137.585 42.8834C137.787 42.6968 137.977 42.4963 138.152 42.2834L139.243 43.6362C139.056 43.903 138.84 44.1482 138.599 44.3671C138.334 44.6182 138.032 44.8279 137.705 44.9889C137.326 45.1824 136.928 45.3325 136.516 45.4361C136.023 45.5635 135.518 45.633 135.01 45.6434ZM134.77 33.8943C134.42 33.889 134.073 33.9482 133.745 34.0689C133.419 34.1897 133.132 34.3971 132.916 34.6689C132.644 35.0094 132.447 35.4034 132.337 35.8252C132.178 36.4236 132.09 37.0389 132.076 37.658H137.236V37.3634C137.208 36.8952 137.154 36.4289 137.072 35.9671C137 35.5832 136.863 35.2144 136.668 34.8761C136.494 34.5776 136.241 34.3324 135.937 34.1671C135.579 33.9761 135.176 33.8821 134.77 33.8943Z" fill="white"/>
</svg>
